<?xml version="1.0" encoding="iso-8859-1"?>
<!DOCTYPE svg PUBLIC "-//W3C//DTD SVG 1.1//EN" "http://www.w3.org/Graphics/SVG/1.1/DTD/svg11.dtd">
<svg 
 version="1.1" xmlns="http://www.w3.org/2000/svg" xmlns:xlink="http://www.w3.org/1999/xlink" x="0px" y="0px" width="512px"
	 height="512px" viewBox="0 0 512 512" style="enable-background:new 0 0 512 512;" xml:space="preserve"
><g id="afcae5a789ccd549f9c6e2a2f813d107"><g></g><path style="display: inline;" d="M277.292,256c0,11.76-9.531,21.291-21.291,21.291c-11.761,0-21.292-9.531-21.292-21.291
		c0-11.76,9.531-21.292,21.292-21.292C267.761,234.708,277.292,244.24,277.292,256z M468.917,256
		c0,117.591-95.321,212.917-212.916,212.917c-117.587,0-212.919-95.326-212.919-212.917c0-55.309,21.101-105.681,55.67-143.536
		c0,34.2,0,68.391,0,102.586c0,18.859-1.763,34,6.706,50.938c12.64,25.276,25.273,50.548,37.913,75.823
		c8.6,17.195,34.308,2.092,25.741-15.046c-12.642-25.271-25.275-50.547-37.915-75.822c-1.639-3.277-2.35-6.109-2.637-7.411
		c0-0.387,0-0.773,0-1.165c0-11.323,0-22.647,0-33.975c0-40.991,0-81.981,0-122.972c35.537-26.59,79.65-42.338,127.44-42.338
		C373.596,43.083,468.917,138.409,468.917,256z M341.167,256c0-47.037-38.125-85.167-85.166-85.167
		c-47.033,0-85.167,38.129-85.167,85.167s38.134,85.167,85.167,85.167C303.042,341.167,341.167,303.037,341.167,256z M256.001,0.5
		c-46.551,0-90.157,12.513-127.752,34.266v25.084c36.771-24.028,80.644-38.059,127.752-38.059
		c129.146,0,234.208,105.065,234.208,234.208c0,129.144-105.062,234.208-234.208,234.208C126.859,490.208,21.79,385.144,21.79,256
		c0-68.674,29.717-130.541,76.962-173.419V54.702C38.974,101.469,0.499,174.218,0.499,256c0,141.107,114.393,255.5,255.502,255.5
		c141.106,0,255.5-114.393,255.5-255.5S397.107,0.5,256.001,0.5z"></path></g></svg>