<?xml version="1.0" encoding="iso-8859-1"?>
<!DOCTYPE svg PUBLIC "-//W3C//DTD SVG 1.1//EN" "http://www.w3.org/Graphics/SVG/1.1/DTD/svg11.dtd">
<svg 
 version="1.1" xmlns="http://www.w3.org/2000/svg" xmlns:xlink="http://www.w3.org/1999/xlink" x="0px" y="0px" width="512px"
	 height="512px" viewBox="0 0 512 512" style="enable-background:new 0 0 512 512;" xml:space="preserve"
><g id="afcae5a789ccd549f9c6e2a2f815f30a"><g></g><path style="display: inline;" d="M428.243,265.266c5.443,5.447,5.443,14.352,0,19.795l-127.601,127.6
		c-5.443,5.449-14.352,5.449-19.795,0l-1.875-1.871c-0.316,0.258-0.591,0.541-0.948,0.783l-34.881,23.162
		c-6.408,4.258-16.11,3.285-21.558-2.154l-27.69-27.692c-55.418,48.236-139.813,44.895-191.186-8.712
		c-3.036-3.164-2.928-8.191,0.237-11.227c3.171-3.037,8.201-2.928,11.232,0.236c45.228,47.196,119.367,50.392,168.45,8.435
		l-30.647-30.649c-5.443-5.443-6.402-15.141-2.135-21.545l23.208-34.82c0.233-0.357,0.524-0.631,0.782-0.951l-1.854-1.859
		c-5.443-5.443-5.443-14.352,0-19.799l127.596-127.597c5.443-5.443,14.351-5.443,19.799,0L428.243,265.266z M507.417,186.091
		l-58.319,58.315c-5.443,5.447-14.351,5.447-19.794,0l-89.076-89.07c-5.439-5.443-5.439-14.351,0-19.794l58.323-58.319
		c5.443-5.443,14.352-5.443,19.795,0l89.071,89.074C512.86,171.74,512.86,180.648,507.417,186.091z M409.509,145.442l-19.795-19.797
		l-19.795,19.797l19.795,19.792L409.509,145.442z M458.995,194.928L439.2,175.134l-19.794,19.794l19.794,19.795L458.995,194.928z"></path></g></svg>